<?xml version="1.0" standalone="no"?>
<!DOCTYPE svg PUBLIC "-//W3C//DTD SVG 1.1//EN" "http://www.w3.org/Graphics/SVG/1.1/DTD/svg11.dtd">
<svg id="jcu_logo" viewBox="0 0 260 465" version="1.1"
	xmlns="http://www.w3.org/2000/svg" xml:space="preserve"
	x="0px" y="0px" width="260px" height="465px">
		<g>
			<path d="M 137.69 85.575 L 130 1 L 122.31 85.575 C 124.8177 85.1958 127.3865 85 130 85 C 132.6135 85 135.1823 85.1958 137.69 85.575 Z" fill="#e0b71d"/>
			<path d="M 171.5 106.35 L 187 79 L 159.65 94.5 C 164.2211 97.7716 168.2283 101.7786 171.5 106.35 Z" stroke="#ffffff00" stroke-width="1" fill="#e0b71d"/>
			<path d="M 160 63 C 160 63 152.5973 67.6902 150.632 75.1784 C 149.4409 79.7166 145.0517 83.8328 141.78 86.37 C 147.3582 87.6892 152.5824 89.9265 157.285 92.91 C 157.983 90.095 159.6583 82.3991 158.7719 76.5096 C 157.6667 69.1667 160 63 160 63 Z" stroke="#ffffff00" stroke-width="1" fill="#e0b71d"/>
			<path d="M 203 106 C 203 106 194.1637 104.2995 187.4532 108.347 C 183.8941 110.4938 178.0982 110.1672 173.53 109.415 C 176.4907 114.2526 178.668 119.6207 179.885 125.345 C 182.3354 123.8665 188.8283 119.6853 192.3438 114.9135 C 196.7953 108.8711 203 106 203 106 Z" stroke="#ffffff00" stroke-width="1" fill="#e0b71d"/>
			<path d="M 225 136 L 180.44 128.415 C 180.809 130.8896 181 133.4226 181 136 C 181 138.5774 180.809 141.1104 180.44 143.585 L 225 136 Z" stroke="#ffffff00" stroke-width="1" fill="#e0b71d"/>
			<path d="M 100.35 94.5 L 73 79 L 88.5 106.35 C 91.7716 101.7789 95.7786 97.7717 100.35 94.5 Z" stroke="#ffffff00" stroke-width="1" fill="#e0b71d"/>
			<path d="M 100 63 C 100 63 97.3333 70.1667 101.2281 76.5096 C 104.2785 81.4773 103.6363 89.3915 103.215 92.59 C 108.1014 89.5687 113.5352 87.3484 119.335 86.115 C 117.5368 82.2216 113.835 75.3567 109.5 73.8333 C 103.368 71.6784 100 63 100 63 Z" stroke="#ffffff00" stroke-width="1" fill="#e0b71d"/>
			<path d="M 57 106 C 57 106 59.5 112.8333 67.6562 114.9135 C 73.9194 116.511 78.4844 122.1421 80.265 124.67 C 81.6233 118.6818 84.0348 113.0926 87.295 108.11 C 83.5638 106.763 77.3345 105.1651 71.5 106.6667 C 62.3802 109.0137 57 106 57 106 Z" stroke="#ffffff00" stroke-width="1" fill="#e0b71d"/>
			<path d="M 35 136 L 79.56 143.585 C 79.1911 141.1104 79 138.5774 79 136 C 79 133.4226 79.1911 130.8896 79.56 128.415 L 35 136 Z" stroke="#ffffff00" stroke-width="1" fill="#e0b71d"/>
			<path d="M 88.525 142.65 C 95.3264 138.4296 111.2574 130 130 130 C 148.7426 130 164.6736 138.4296 171.475 142.65 C 171.8197 140.4837 172 138.2634 172 136 C 172 112.8037 153.1963 94 130 94 C 106.8037 94 88 112.8037 88 136 C 88 138.2634 88.1803 140.4837 88.525 142.65 Z" fill="#e0b71d"/>
		</g>
		<g>
			<path d="M 130 214 C 161.5 214 158 229 192 229 C 226 229 222.5 214 254 214 L 259 214 L 259 172 L 254 172 C 222.5 172 226 187 192 187 C 158 187 161.5 172 130 172 C 98.5 172 102 187 68 187 C 34 187 37.5 172 6 172 L 1 172 L 1 214 L 6 214 C 37.5 214 34 229 68 229 C 102 229 98.5 214 130 214 Z" fill="#1668b1"/>
			<path d="M 130 297 C 161.5 297 158 312 192 312 C 226 312 222.5 297 254 297 L 259 297 L 259 255 L 254 255 C 222.5 255 226 270 192 270 C 158 270 161.5 255 130 255 C 98.5 255 102 270 68 270 C 34 270 37.5 255 6 255 L 1 255 L 1 297 L 6 297 C 37.5 297 34 312 68 312 C 102 312 98.5 297 130 297 Z" fill="#1668b1"/>
			<path d="M 130 381 C 161.5 381 158 396 192 396 C 211.8167 396 218.8966 390.9063 227.59 386.655 C 229.5735 383.7805 231.5429 380.7334 233.5 377.5 C 241.6929 363.964 247.2859 350.6184 251.09 339.045 C 222.6866 339.9423 224.9149 354 192 354 C 158 354 161.5 339 130 339 C 98.5 339 102 354 68 354 C 35.0851 354 37.3134 339.9423 8.91 339.045 C 12.7141 350.6184 18.3071 363.964 26.5 377.5 C 28.4571 380.7334 30.4265 383.7805 32.41 386.655 C 41.1034 390.9063 48.1832 396 68 396 C 102 396 98.5 381 130 381 Z" fill="#1668b1"/>
			<path d="M 173.81 435.035 C 157.7897 430.9673 154.3559 422 130 422 C 105.6441 422 102.2103 430.9673 86.19 435.035 C 90.0003 437.3716 93.7775 439.6532 97.5 442 C 120.5 456.5 130 464 130 464 C 130 464 139.5 456.5 162.5 442 C 166.2225 439.6532 169.9997 437.3716 173.81 435.035 Z" fill="#1668b1"/>
		</g>
</svg>