<svg xmlns="http://www.w3.org/2000/svg" id="Layer_1" data-name="Layer 1" viewBox="0 0 593.69 154.83"><defs><style>.cls-3{fill:#d1d7dc}.cls-4{fill:#99a6b1}.cls-9{fill:#465a65}</style><clipPath id="clip-path" transform="translate(.51 -316.66)"><path fill="none" d="M83.23 375.19c-19.06 7.16-34.93 14.33-78.7-3-3.23 12.74-5 25.71-.63 43.17 41.67 13.54 65.56 6.62 88.19-.3 18.79-5.74 36.71-11.49 63.21-5.52a91.3 91.3 0 0 0-2.36-38.61 156 156 0 0 0-31.09-3.49c-17.08 0-28.32 3.87-38.62 7.75"/></clipPath><linearGradient id="linear-gradient" x1="-.91" x2=".57" y1="840.33" y2="840.33" gradientTransform="matrix(108.3 0 0 -108.3 99.82 91092.21)" gradientUnits="userSpaceOnUse"><stop offset="0" stop-color="#00a651"/><stop offset="1" stop-color="#a6ce39"/></linearGradient></defs><path fill="#fff" d="M79 471.49a77.42 77.42 0 1 0-77.46-77.42A77.41 77.41 0 0 0 79 471.49" transform="translate(.51 -316.66)"/><path d="M127.64 333.06c3.33 3.16-4.43 11.23-22.72 9.07s-40.55-19.44-55.17-4.82c20.44-13 34.64-21.18 44-17.35s26.23 10.64 25.56 8.15c1.58.79 8.38 4.95 8.38 4.95" class="cls-3" transform="translate(.51 -316.66)"/><path d="M24.8 339.06c35.14 28.85 71.2-26.06 103.11-5.8-28.57-22.16-73.77-24-103.11 5.8" class="cls-4" transform="translate(.51 -316.66)"/><path fill="#bbd976" d="M4.53 372.34c68.89-15.88 115.14 37.36 149.27 4.09.22 5.91.08 18.64 1.5 33.23-21.43 12.19-52.7 16.34-78.3 2.76C59.17 402 9 385.75 4.53 372.34" transform="translate(.51 -316.66)"/><g clip-path="url(#clip-path)"><path fill="url(#linear-gradient)" d="M0 50.78h158.09v61.46H0z"/></g><path d="M30.86 455.07c-3.32-3.16 4.45-11.22 22.73-9.06s40.55 19.45 55.18 4.82c-20.44 13-34.65 21.18-43.95 17.35S38.59 457.54 39.25 460c-1.58-.79-8.39-5-8.39-5" class="cls-3" transform="translate(.51 -316.66)"/><path d="M133.71 449.08c-35.13-28.85-71.24 26.11-103.11 5.8 28.57 22.16 73.78 24 103.11-5.8" class="cls-4" transform="translate(.51 -316.66)"/><path fill="#0db14b" d="M591.14 414c-.56-4.42-.91-7.23-1.19-9.68a28.81 28.81 0 0 0-8.83-1.62c-9 0-14.46 5.75-14.46 12.49 0 7.92 7.09 11.36 11.58 13.82 5.26 2.8 9.12 5.26 9.12 10.45s-3.09 8.41-8.42 8.41c-7.29 0-10.45-7.08-11.5-11.36l-2.11.49c.49 3.37 1.41 9.4 1.9 10.87a21.42 21.42 0 0 0 3.5 1.48 24.1 24.1 0 0 0 6.88 1.05c9.33 0 15.57-5.89 15.57-13.26 0-7.92-6.59-11.15-12.14-14s-8.9-5.26-8.9-10.38c0-3.79 2.38-7.64 7.78-7.64 6.11 0 8 4.84 9.19 9.26zm-30.86 23.07c-3.5 6.95-7.29 10.8-14.45 10.8-10.66 0-18.37-9-18.37-22.09 0-10.66 6.24-20.55 17.95-20.55 7.58 0 11.79 3 13.68 10.45l2-.56c-.42-3.72-.84-6.59-1.4-10.52-2-.35-6.73-1.9-12.41-1.9-15.65 0-27 9.68-27 24.48 0 11.15 7.65 23.22 25.11 23.22a65.17 65.17 0 0 0 12.91-1.82 81.23 81.23 0 0 0 4-10.81zm-40.68 12.32v-2c-5.75-.42-6.31-.77-6.31-6.8v-28.03c0-6 .56-6.38 6.31-6.8v-2H501v2c5.75.42 6.31.84 6.31 6.8v28.06c0 6-.56 6.38-6.31 6.8v2zm-42.72-39.21c0-2 .21-2.88.78-3.3s2-.84 3.92-.84c5.75 0 10.59 3.23 10.59 10.8 0 8.91-5.61 11.37-10.17 11.37a15.22 15.22 0 0 1-5.12-.85zm-11.64-6.39v2c5.19.35 5.75.63 5.75 6.8v28.06c0 5.82-.56 6.38-6.17 6.8v2h19v-2c-6.32-.42-6.95-.77-6.95-6.73v-11l5.19 1.33a16.3 16.3 0 0 0 3.16-.07c6.87-.84 13.68-5.26 13.68-14.38 0-4.56-1.76-7.79-4.49-9.89s-6.87-2.88-11.86-2.88zm-25.6 1.48c9.26 0 17 7.85 17 22.65 0 13.47-6.94 20-14.8 20-9.89 0-17.11-9.6-17.11-22.79s7.15-19.85 14.94-19.85m1.54-2.53c-14.8 0-23.64 11.72-23.64 24.34 0 13.54 10.1 23.36 22.8 23.36s23.43-9.26 23.43-24.41c0-14.1-10.74-23.29-22.59-23.29m-50.64 24.48V409.9c0-2 .21-2.74.77-3.09s1.75-.7 3.79-.7c5.26 0 10.24 2.8 10.24 10.38 0 3.79-1.12 6.59-3.86 8.7-1.75 1.47-4.07 2-7.58 2zm29.39 20.9a9.66 9.66 0 0 1-5.05-3.29 54.59 54.59 0 0 1-5.69-7.3c-2.1-3.15-5.05-7.85-6.24-10.1 5.12-2.31 8.91-6 8.91-12.06a10.38 10.38 0 0 0-4.7-9.19c-2.6-1.75-6-2.39-11.15-2.39h-17.4v2c5.47.49 6 .7 6 6.66v28.2c0 6-.56 6.38-6.31 6.8v2h18.38v-2c-5.54-.42-6.17-.84-6.17-6.8v-11.19h2.24c3.58 0 4.77.84 6 2.8 2.11 3.44 4.63 7.79 7.09 11.22 3.16 4.56 6 6.11 11.36 6.39.77.07 1.61.07 2.46.07zm-43.21-33.66c-.42-4.07-.7-9.19-.77-12.42h-1.48a3.55 3.55 0 0 1-3.5 1.75h-27.74c-2 0-2.88-.14-3.86-1.75H338c-.14 3.86-.49 8.42-.84 12.63h2c.84-3.09 1.41-5.12 2.25-6.32.91-1.54 2.31-2.17 8.13-2.17h4.35v34.58c0 5.54-.56 6.24-6.94 6.66v2H367v-2c-6.59-.42-7.15-1.12-7.15-6.66v-34.59h4.91c5.33 0 6.45.56 7.64 2.24.77 1.13 1.47 2.88 2.18 6.25z" transform="translate(.51 -316.66)"/><path d="M322.71 438a22.51 22.51 0 0 1-3.51 6.6c-1.54 1.82-3.5 2.38-8.84 2.38-3.5 0-6 0-7.29-.91s-1.68-2.38-1.68-5.68v-13.24h6.66c6.1 0 6.59.42 7.51 5.4h2v-13.39h-2c-.85 4.7-1.2 5.26-7.58 5.26h-6.59v-16c0-2 .14-2.24 2.31-2.24h5.3c5.05 0 7 .49 7.93 2a17.18 17.18 0 0 1 2.24 6l2-.28c-.21-3.57-.56-8.34-.56-10.1h-31.22v2c5.47.42 6 .7 6 6.94v27.92c0 5.75-.56 6.31-6.94 6.8v2h33.81c.63-2.18 2-8.77 2.45-11.08zm-36-34.23h-18.36v2c5.47.49 6 .84 6 6.66v11.37h-23.89v-11.38c0-5.82.56-6.24 5.9-6.66v-2h-18.17v2c5.75.42 6.31.77 6.31 6.66v28.34c0 5.89-.56 6.24-6.17 6.66v2h18.45v-2c-5.76-.42-6.32-.84-6.32-6.66v-14h23.92v14c0 5.89-.56 6.24-6.59 6.66v2h18.8v-2c-5.68-.42-6.25-.77-6.25-6.66v-28.34c0-5.82.57-6.17 6.32-6.66zm-50.08 10.67c-.43-4.07-.7-9.19-.78-12.42h-1.47a3.56 3.56 0 0 1-3.51 1.75h-27.7c-2 0-2.88-.14-3.86-1.75h-1.4c-.14 3.86-.49 8.42-.84 12.63h2c.84-3.09 1.4-5.12 2.24-6.32.92-1.54 2.32-2.17 8.14-2.17h4.35v34.58c0 5.54-.56 6.24-6.95 6.66v2h20.05v-2c-6.6-.42-7.16-1.12-7.16-6.66v-34.56h4.91c5.33 0 6.45.56 7.65 2.24.77 1.13 1.47 2.88 2.17 6.25zM469.73 354.48c-.28-3.36-.63-7.78-.7-10.31h-30.86v2c5.4.42 6 .77 6 6.8v28c0 6-.56 6.45-6.17 6.87v2h19v-2c-6.38-.42-6.94-.84-6.94-6.87v-12.7h7.22c6.39 0 6.74.77 7.58 5.61h2v-13.57h-2c-.84 4.56-1.19 5.19-7.58 5.19h-7.22v-16.7c0-2 .21-2.24 2.32-2.24h5.33c5.33 0 6.8.63 8 2.59.91 1.41 1.33 2.81 2 5.62zm-57-8.83c9.26 0 17 7.85 17 22.65 0 13.47-6.95 20-14.8 20-9.89 0-17.12-9.61-17.12-22.79s7.16-19.85 14.94-19.85m1.55-2.53c-14.8 0-23.64 11.71-23.64 24.34 0 13.54 10.1 23.36 22.79 23.36s23.43-9.26 23.43-24.41c0-14.1-10.73-23.29-22.58-23.29m-39.19 35.27a22.89 22.89 0 0 1-3.51 6.6c-1.54 1.82-3.51 2.38-8.84 2.38-3.5 0-6 0-7.29-.91s-1.69-2.39-1.69-5.68v-13.26h6.67c6.1 0 6.59.42 7.5 5.4h2v-13.4h-2c-.84 4.7-1.19 5.26-7.57 5.26h-6.6v-16c0-2 .14-2.24 2.32-2.24h5.33c5.05 0 6.94.49 7.93 2a17.18 17.18 0 0 1 2.24 6l2-.28c-.2-3.57-.56-8.34-.56-10.1h-31.25v2c5.47.42 6 .7 6 6.94V381c0 5.75-.56 6.31-6.94 6.8v2h33.81c.63-2.18 2-8.77 2.45-11.09zm-35.21-23.57c-.42-4.06-.7-9.18-.77-12.41h-1.48a3.56 3.56 0 0 1-3.51 1.75h-27.7c-2 0-2.88-.14-3.86-1.75h-1.4c-.14 3.86-.49 8.42-.84 12.62h2c.84-3.08 1.4-5.12 2.25-6.31.91-1.54 2.31-2.17 8.13-2.17h4.35v34.58c0 5.54-.56 6.24-6.94 6.66v2h20.06v-2c-6.6-.42-7.16-1.12-7.16-6.66v-34.58H328c5.33 0 6.46.56 7.65 2.24.77 1.12 1.47 2.88 2.17 6.24zm-51.84 15.3h-12.91c2.18-5.76 4.35-11.93 6.6-17.89h.14zM306 389.77v-2c-4.56-.42-5.54-1.05-7.72-7.08-4.49-12.21-9.19-25.61-13.54-37.6l-2.17.63L268 380.51c-2.39 6.24-3.37 6.66-7.86 7.29v2h15.3v-2c-5.34-.49-5.9-1.19-4.42-5.61.91-2.95 2-5.89 3.08-9.05H289c1.55 4.28 2.95 8.07 3.86 10.8s.28 3.3-4.14 3.86v2zm-39.63-34.94c-.42-4.06-.7-9.18-.77-12.41h-1.48a3.55 3.55 0 0 1-3.5 1.75h-27.76c-2 0-2.88-.14-3.86-1.75h-1.4c-.14 3.86-.49 8.42-.84 12.62h2c.84-3.08 1.4-5.12 2.25-6.31.91-1.54 2.31-2.17 8.13-2.17h4.35v34.58c0 5.54-.56 6.24-6.94 6.66v2h20.06v-2c-6.6-.42-7.16-1.12-7.16-6.66v-34.58h4.91c5.33 0 6.46.56 7.65 2.24.77 1.12 1.47 2.88 2.17 6.24zm-42.58-.42c-.56-4.41-.91-7.22-1.19-9.68a29.18 29.18 0 0 0-8.84-1.61c-9.05 0-14.45 5.75-14.45 12.49 0 7.92 7.08 11.36 11.57 13.81 5.26 2.81 9.12 5.27 9.12 10.46s-3.08 8.41-8.42 8.41c-7.29 0-10.45-7.08-11.5-11.36l-2.1.49c.49 3.37 1.4 9.4 1.89 10.87a22.16 22.16 0 0 0 3.51 1.48 24 24 0 0 0 6.87 1.05c9.33 0 15.57-5.89 15.57-13.26 0-7.93-6.59-11.15-12.13-14s-8.91-5.26-8.91-10.38c0-3.79 2.39-7.64 7.79-7.64 6.1 0 8 4.83 9.19 9.26z" class="cls-9" transform="translate(.51 -316.66)"/></svg>