<?xml version="1.0" encoding="UTF-8" standalone="no"?>
<svg
   xmlns:dc="http://purl.org/dc/elements/1.1/"
   xmlns:cc="http://creativecommons.org/ns#"
   xmlns:rdf="http://www.w3.org/1999/02/22-rdf-syntax-ns#"
   xmlns:svg="http://www.w3.org/2000/svg"
   xmlns="http://www.w3.org/2000/svg"
   viewBox="0 0 219.07771 65.353064"
   height="65.353065"
   width="219.07771"
   xml:space="preserve"
   id="svg2"
   version="1.1"><metadata
     id="metadata8"><rdf:RDF><cc:Work
         rdf:about=""><dc:format>image/svg+xml</dc:format><dc:type
           rdf:resource="http://purl.org/dc/dcmitype/StillImage" /><dc:title></dc:title></cc:Work></rdf:RDF></metadata><defs
     id="defs6"><clipPath
       id="clipPath18"
       clipPathUnits="userSpaceOnUse"><path
         id="path16"
         d="M 0,0 H 595.276 V 841.89 H 0 Z" /></clipPath><clipPath
       id="clipPath26"
       clipPathUnits="userSpaceOnUse"><path
         id="path24"
         d="M 13.1732,828.717 H 582.102 V 670.811 H 13.1732 Z" /></clipPath><clipPath
       id="clipPath46"
       clipPathUnits="userSpaceOnUse"><path
         id="path44"
         d="M 0,0 H 595.276 V 841.89 H 0 Z" /></clipPath><clipPath
       id="clipPath54"
       clipPathUnits="userSpaceOnUse"><path
         id="path52"
         d="M 13.1732,465.882 H 582.102 V 13.1732 H 13.1732 Z" /></clipPath><clipPath
       id="clipPath92"
       clipPathUnits="userSpaceOnUse"><path
         id="path90"
         d="m 42.52,707.119 h 270.327 v 55.526 H 42.52 Z" /></clipPath><clipPath
       id="clipPath1206"
       clipPathUnits="userSpaceOnUse"><path
         id="path1204"
         d="m 386.979,707.119 h 164.309 v 49.039 H 386.979 Z" /></clipPath><clipPath
       id="clipPath1222"
       clipPathUnits="userSpaceOnUse"><path
         id="path1220"
         d="m 386.979,707.143 h 164.309 v 49.015 H 386.979 Z" /></clipPath><clipPath
       id="clipPath1246"
       clipPathUnits="userSpaceOnUse"><path
         id="path1244"
         d="m 386.979,707.119 h 164.309 v 49.039 H 386.979 Z" /></clipPath></defs><g
     transform="matrix(1.3333333,0,0,-1.3333333,-515.97293,1008.2106)"
     id="g10"><g
       style="fill:#071e39;fill-opacity:1"
       id="g1200"><g
         style="fill:#071e39;fill-opacity:1"
         clip-path="url(#clipPath1206)"
         id="g1202"><g
           style="fill:#071e39;fill-opacity:1"
           transform="translate(402.6185,742.0775)"
           id="g1208"><path
             id="path1210"
             style="fill:#071e39;fill-opacity:1;fill-rule:nonzero;stroke:none"
             d="M 0,0 C -0.064,0.008 -0.127,-0.031 -0.162,-0.089 -1.357,-2.055 -2.487,-4.095 -3.52,-6.152 -3.55,-6.211 -3.549,-6.282 -3.518,-6.34 1.599,-15.83 4.971,-24.593 7.415,-34.754 7.436,-34.84 7.508,-34.9 7.592,-34.9 h 3.18 c 0.053,0 0.103,0.024 0.138,0.067 0.035,0.042 0.051,0.099 0.043,0.154 C 9.382,-22.908 4.397,-8.832 0.154,-0.105 0.124,-0.043 0.066,-0.003 0,0" /></g><g
           style="fill:#071e39;fill-opacity:1"
           transform="translate(408.5421,749.3447)"
           id="g1212"><path
             id="path1214"
             style="fill:#071e39;fill-opacity:1;fill-rule:nonzero;stroke:none"
             d="m 0,0 c -0.063,0.012 -0.124,-0.018 -0.164,-0.07 -1.444,-1.887 -2.833,-3.88 -4.129,-5.924 -0.038,-0.059 -0.042,-0.136 -0.011,-0.199 4.271,-8.617 8.937,-19.61 11.157,-35.808 0.013,-0.095 0.09,-0.166 0.181,-0.166 h 3.124 c 0.05,0 0.098,0.022 0.133,0.061 0.034,0.038 0.052,0.09 0.049,0.144 C 9.33,-22.727 2.873,-6.286 0.144,-0.11 0.117,-0.05 0.063,-0.008 0,0" /></g></g></g><g
       style="fill:#071e39;fill-opacity:1"
       id="g1216"><g
         style="fill:#071e39;fill-opacity:1"
         clip-path="url(#clipPath1222)"
         id="g1218"><g
           style="fill:#071e39;fill-opacity:1"
           transform="translate(397.7352,734.4353)"
           id="g1224"><path
             id="path1226"
             style="fill:#071e39;fill-opacity:1;fill-rule:nonzero;stroke:none"
             d="m 0,0 c -0.033,0.063 -0.096,0.102 -0.164,0.099 -0.067,-0.001 -0.128,-0.042 -0.159,-0.106 -0.389,-0.812 -0.774,-1.65 -1.145,-2.49 -0.516,-1.17 -1.015,-2.373 -1.483,-3.574 -0.022,-0.058 -0.017,-0.123 0.013,-0.177 3.869,-6.64 7.115,-13.666 9.648,-20.883 0.027,-0.077 0.095,-0.127 0.172,-0.127 h 3.382 c 0.056,0 0.11,0.028 0.145,0.076 0.034,0.048 0.046,0.11 0.032,0.169 C 8.144,-17.926 4.534,-8.585 0,0" /></g><g
           style="fill:#071e39;fill-opacity:1"
           transform="translate(423.3169,725.9066)"
           id="g1228"><path
             id="path1230"
             style="fill:#071e39;fill-opacity:1;fill-rule:nonzero;stroke:none"
             d="m 0,0 v 0 c -1.234,10.087 -3.783,19.944 -7.793,30.132 -0.023,0.059 -0.073,0.102 -0.132,0.116 -0.059,0.012 -0.121,-0.006 -0.164,-0.051 -1.633,-1.668 -3.672,-3.815 -4.958,-5.62 -0.043,-0.059 -0.049,-0.14 -0.015,-0.207 0.097,-0.197 9.746,-19.873 10.46,-42.911 0.003,-0.105 0.084,-0.188 0.183,-0.188 h 3.121 c 0.099,0 0.181,0.085 0.183,0.191 C 0.986,-12.827 0.614,-5.031 0,0" /></g><g
           style="fill:#071e39;fill-opacity:1"
           transform="translate(393.5456,726.7543)"
           id="g1232"><path
             id="path1234"
             style="fill:#071e39;fill-opacity:1;fill-rule:nonzero;stroke:none"
             d="m 0,0 c -0.036,0.064 -0.103,0.099 -0.172,0.093 -0.07,-0.006 -0.13,-0.054 -0.155,-0.123 -0.719,-1.968 -1.367,-3.977 -1.926,-5.973 -0.015,-0.055 -0.007,-0.115 0.023,-0.163 2.669,-4.256 5.104,-8.732 7.237,-13.303 0.031,-0.066 0.095,-0.108 0.164,-0.108 h 3.494 c 0.06,0 0.117,0.032 0.151,0.084 0.034,0.052 0.042,0.119 0.02,0.179 C 6.47,-12.64 3.497,-6.142 0,0" /></g><g
           style="fill:#071e39;fill-opacity:1"
           transform="translate(389.1775,709.5836)"
           id="g1236"><path
             id="path1238"
             style="fill:#071e39;fill-opacity:1;fill-rule:nonzero;stroke:none"
             d="M 0,0 C -0.457,0.679 -0.908,1.349 -1.341,2.011 -1.384,2.076 -1.46,2.105 -1.533,2.089 -1.607,2.071 -1.661,2.007 -1.673,1.928 -1.758,1.312 -2.089,-1.083 -2.197,-2.197 c -0.005,-0.054 0.014,-0.107 0.048,-0.147 0.035,-0.039 0.083,-0.062 0.134,-0.062 H 1.25 c 0.069,0 0.131,0.041 0.163,0.104 C 1.444,-2.238 1.44,-2.16 1.401,-2.101 0.936,-1.392 0.466,-0.692 0,0" /></g></g></g><g
       style="fill:#071e39;fill-opacity:1"
       id="g1240"><g
         style="fill:#071e39;fill-opacity:1"
         clip-path="url(#clipPath1246)"
         id="g1242"><g
           style="fill:#071e39;fill-opacity:1"
           transform="translate(390.1953,719.014)"
           id="g1248"><path
             id="path1250"
             style="fill:#071e39;fill-opacity:1;fill-rule:nonzero;stroke:none"
             d="M 0,0 C -0.039,0.065 -0.11,0.1 -0.182,0.086 -0.253,0.074 -0.311,0.019 -0.33,-0.055 c -0.497,-1.96 -0.911,-3.928 -1.232,-5.847 -0.009,-0.052 0.003,-0.104 0.031,-0.147 1.279,-1.901 2.527,-3.767 3.733,-5.7 0.034,-0.055 0.091,-0.087 0.152,-0.087 h 3.721 c 0.063,0 0.122,0.034 0.156,0.092 0.033,0.058 0.036,0.129 0.007,0.189 C 4.372,-7.606 2.273,-3.718 0,0" /></g><g
           style="fill:#071e39;fill-opacity:1"
           transform="translate(439.5035,725.618)"
           id="g1252"><path
             id="path1254"
             style="fill:#071e39;fill-opacity:1;fill-rule:nonzero;stroke:none"
             d="m 0,0 c -2.762,0 -4.857,1.885 -4.857,4.686 v 8.99 H -2.8 V 4.781 c 0,-1.81 1.105,-2.934 2.8,-2.934 1.695,0 2.819,1.124 2.819,2.934 v 8.895 H 4.877 V 4.686 C 4.877,1.885 2.762,0 0,0" /></g><g
           style="fill:#071e39;fill-opacity:1"
           transform="translate(455.5801,725.7321)"
           id="g1256"><path
             id="path1258"
             style="fill:#071e39;fill-opacity:1;fill-rule:nonzero;stroke:none"
             d="M 0,0 -6.267,9.543 V 0 h -2.057 v 13.562 h 1.886 l 6.266,-9.524 v 9.524 H 1.886 V 0 Z" /></g><path
           id="path1260"
           style="fill:#071e39;fill-opacity:1;fill-rule:nonzero;stroke:none"
           d="m 460.475,739.294 h 2.057 v -13.562 h -2.057 z" /><g
           style="fill:#071e39;fill-opacity:1"
           transform="translate(470.3716,725.7321)"
           id="g1262"><path
             id="path1264"
             style="fill:#071e39;fill-opacity:1;fill-rule:nonzero;stroke:none"
             d="m 0,0 h -1.6 l -4.457,13.562 h 2.133 L -0.8,3.696 2.324,13.562 h 2.172 z" /></g><g
           style="fill:#071e39;fill-opacity:1"
           transform="translate(476.6685,725.7321)"
           id="g1266"><path
             id="path1268"
             style="fill:#071e39;fill-opacity:1;fill-rule:nonzero;stroke:none"
             d="M 0,0 V 13.562 H 8.667 V 11.714 H 2.057 V 7.753 H 7.696 V 5.924 H 2.057 V 1.848 h 6.61 V 0 Z" /></g><g
           style="fill:#071e39;fill-opacity:1"
           transform="translate(495.0806,725.7321)"
           id="g1270"><path
             id="path1272"
             style="fill:#071e39;fill-opacity:1;fill-rule:nonzero;stroke:none"
             d="M 0,0 -2.857,5.715 H -5.429 V 0 h -2.057 v 13.562 h 5.257 c 2.572,0 4.21,-1.657 4.21,-3.961 C 1.981,7.657 0.8,6.419 -0.724,6 L 2.4,0 Z M -2.381,11.714 H -5.429 V 7.467 h 3.048 c 1.372,0 2.305,0.781 2.305,2.114 0,1.334 -0.933,2.133 -2.305,2.133" /></g><g
           style="fill:#071e39;fill-opacity:1"
           transform="translate(503.4976,725.618)"
           id="g1274"><path
             id="path1276"
             style="fill:#071e39;fill-opacity:1;fill-rule:nonzero;stroke:none"
             d="m 0,0 c -2.038,0 -3.505,0.476 -4.8,1.79 l 1.371,1.353 c 0.991,-0.991 2.077,-1.296 3.467,-1.296 1.772,0 2.8,0.763 2.8,2.077 0,0.59 -0.171,1.086 -0.533,1.409 C 1.962,5.657 1.619,5.79 0.819,5.905 l -1.6,0.228 c -1.105,0.153 -1.981,0.534 -2.572,1.086 -0.666,0.629 -0.99,1.486 -0.99,2.59 0,2.363 1.715,3.982 4.533,3.982 1.791,0 3.048,-0.457 4.21,-1.543 L 3.085,10.953 c -0.837,0.8 -1.809,1.048 -2.952,1.048 -1.6,0 -2.476,-0.915 -2.476,-2.115 0,-0.495 0.153,-0.934 0.514,-1.257 C -1.486,8.324 -0.933,8.095 -0.305,8 L 1.238,7.771 C 2.495,7.581 3.2,7.276 3.771,6.762 4.514,6.114 4.877,5.143 4.877,3.981 4.877,1.485 2.838,0 0,0" /></g><path
           id="path1278"
           style="fill:#071e39;fill-opacity:1;fill-rule:nonzero;stroke:none"
           d="m 510.604,739.294 h 2.057 v -13.562 h -2.057 z" /><g
           style="fill:#071e39;fill-opacity:1"
           transform="translate(520.4603,737.4467)"
           id="g1280"><path
             id="path1282"
             style="fill:#071e39;fill-opacity:1;fill-rule:nonzero;stroke:none"
             d="M 0,0 V -11.714 H -2.057 V 0 H -5.79 V 1.848 H 3.734 V 0 Z" /></g><path
           id="path1284"
           style="fill:#071e39;fill-opacity:1;fill-rule:nonzero;stroke:none"
           d="m 526.224,739.294 h 2.057 v -13.562 h -2.057 z" /><g
           style="fill:#071e39;fill-opacity:1"
           transform="translate(531.2606,725.7321)"
           id="g1286"><path
             id="path1288"
             style="fill:#071e39;fill-opacity:1;fill-rule:nonzero;stroke:none"
             d="M 0,0 V 13.562 H 8.667 V 11.714 H 2.057 V 7.753 H 7.695 V 5.924 H 2.057 V 1.848 h 6.61 V 0 Z" /></g><g
           style="fill:#071e39;fill-opacity:1"
           transform="translate(546.4117,725.618)"
           id="g1290"><path
             id="path1292"
             style="fill:#071e39;fill-opacity:1;fill-rule:nonzero;stroke:none"
             d="m 0,0 c -2.038,0 -3.505,0.476 -4.8,1.79 l 1.371,1.353 c 0.991,-0.991 2.077,-1.296 3.467,-1.296 1.772,0 2.8,0.763 2.8,2.077 0,0.59 -0.171,1.086 -0.533,1.409 C 1.962,5.657 1.619,5.79 0.819,5.905 l -1.6,0.228 c -1.105,0.153 -1.981,0.534 -2.572,1.086 -0.666,0.629 -0.99,1.486 -0.99,2.59 0,2.363 1.715,3.982 4.533,3.982 1.791,0 3.048,-0.457 4.21,-1.543 L 3.085,10.953 c -0.837,0.8 -1.809,1.048 -2.952,1.048 -1.6,0 -2.476,-0.915 -2.476,-2.115 0,-0.495 0.153,-0.934 0.514,-1.257 C -1.486,8.324 -0.933,8.095 -0.305,8 L 1.238,7.771 C 2.495,7.581 3.2,7.276 3.771,6.762 4.514,6.114 4.877,5.143 4.877,3.981 4.877,1.485 2.838,0 0,0" /></g><g
           style="fill:#071e39;fill-opacity:1"
           transform="translate(438.361,720.8193)"
           id="g1294"><path
             id="path1296"
             style="fill:#071e39;fill-opacity:1;fill-rule:nonzero;stroke:none"
             d="m 0,0 -4.991,-13.562 h 1.105 l 1.181,3.295 H 3.619 L 4.8,-13.562 H 5.905 L 0.914,0 Z m 0.457,-1.371 2.838,-7.981 h -5.676 z" /></g><g
           style="fill:#071e39;fill-opacity:1"
           transform="translate(450.5761,707.1432)"
           id="g1298"><path
             id="path1300"
             style="fill:#071e39;fill-opacity:1;fill-rule:nonzero;stroke:none"
             d="m 0,0 c -2.723,0 -4.648,1.866 -4.648,4.514 v 9.162 h 1.029 V 4.648 C -3.619,2.4 -2.171,0.914 0,0.914 c 2.171,0 3.619,1.486 3.619,3.734 v 9.028 H 4.648 V 4.514 C 4.648,1.866 2.723,0 0,0" /></g><g
           style="fill:#071e39;fill-opacity:1"
           transform="translate(462.1857,707.1432)"
           id="g1302"><path
             id="path1304"
             style="fill:#071e39;fill-opacity:1;fill-rule:nonzero;stroke:none"
             d="m 0,0 c -2.019,0 -3.276,0.552 -4.515,1.791 l 0.724,0.723 c 1.219,-1.219 2.21,-1.6 3.848,-1.6 2.133,0 3.486,1.029 3.486,2.8 0,0.8 -0.248,1.467 -0.743,1.905 C 2.305,6.038 1.943,6.171 0.838,6.343 l -1.581,0.248 c -1.028,0.152 -1.847,0.495 -2.419,0.99 -0.724,0.61 -1.067,1.448 -1.067,2.495 0,2.267 1.619,3.715 4.21,3.715 1.676,0 2.743,-0.457 3.905,-1.467 L 3.219,11.657 c -0.838,0.743 -1.676,1.257 -3.296,1.257 -1.961,0 -3.142,-1.086 -3.142,-2.799 0,-0.781 0.229,-1.372 0.704,-1.772 0.477,-0.4 1.258,-0.724 2.02,-0.838 L 0.971,7.276 C 2.248,7.086 2.819,6.857 3.39,6.381 4.134,5.771 4.572,4.838 4.572,3.753 4.572,1.466 2.819,0 0,0" /></g><g
           style="fill:#071e39;fill-opacity:1"
           transform="translate(468.3704,720.8193)"
           id="g1306"><path
             id="path1308"
             style="fill:#071e39;fill-opacity:1;fill-rule:nonzero;stroke:none"
             d="M 0,0 V -0.914 H 4.038 V -13.562 H 5.067 V -0.914 H 9.124 V 0 Z" /></g><g
           style="fill:#071e39;fill-opacity:1"
           transform="translate(487.9796,707.2571)"
           id="g1310"><path
             id="path1312"
             style="fill:#071e39;fill-opacity:1;fill-rule:nonzero;stroke:none"
             d="M 0,0 -3.238,6.248 H -6.971 V 0 H -8 v 13.562 h 5.162 c 2.21,0 3.886,-1.276 3.886,-3.638 0,-2.019 -1.22,-3.333 -3.124,-3.657 L 1.201,0 Z m -2.971,12.648 h -4 V 7.162 h 4 c 1.733,0 2.991,0.876 2.991,2.743 0,1.867 -1.258,2.743 -2.991,2.743" /></g><g
           style="fill:#071e39;fill-opacity:1"
           transform="translate(496.1116,720.8193)"
           id="g1314"><path
             id="path1316"
             style="fill:#071e39;fill-opacity:1;fill-rule:nonzero;stroke:none"
             d="m 0,0 -4.991,-13.562 h 1.105 l 1.181,3.295 H 3.619 L 4.8,-13.562 H 5.905 L 0.914,0 Z m 0.457,-1.371 2.838,-7.981 h -5.676 z" /></g><g
           style="fill:#071e39;fill-opacity:1"
           transform="translate(504.3762,720.8193)"
           id="g1318"><path
             id="path1320"
             style="fill:#071e39;fill-opacity:1;fill-rule:nonzero;stroke:none"
             d="m 0,0 v -13.562 h 8.229 v 0.914 h -7.2 L 1.029,0 Z" /></g><path
           id="path1322"
           style="fill:#071e39;fill-opacity:1;fill-rule:nonzero;stroke:none"
           d="m 515.091,707.257 h 1.029 v 13.562 h -1.029 z" /><g
           style="fill:#071e39;fill-opacity:1"
           transform="translate(523.4378,720.8193)"
           id="g1324"><path
             id="path1326"
             style="fill:#071e39;fill-opacity:1;fill-rule:nonzero;stroke:none"
             d="m 0,0 -4.991,-13.562 h 1.105 l 1.181,3.295 H 3.619 L 4.8,-13.562 H 5.905 L 0.914,0 Z m 0.457,-1.371 2.838,-7.981 h -5.676 z" /></g></g></g></g></svg>