<?xml version="1.0" standalone="no"?>
<!DOCTYPE svg PUBLIC "-//W3C//DTD SVG 1.1//EN" "http://www.w3.org/Graphics/SVG/1.1/DTD/svg11.dtd">
<svg viewBox="0 0 270 476" version="1.1"
     xmlns="http://www.w3.org/2000/svg" xml:space="preserve"
     x="0px" y="0px" width="270px" height="476px">
	<g>
		<path d="M 135 334 C 139.4646 334 143.2252 334.3028 146.49 334.82 L 146.49 282.82 C 143.2252 282.3028 139.4645 282 135 282 C 130.5353 282 126.7749 282.3027 123.51 282.82 L 123.51 334.82 C 126.7748 334.3028 130.5356 334 135 334 Z"
			  fill="#1668b1"/>
		<path d="M 135 405 C 166.5 405 163 420 197 420 C 216.4629 420 223.639 415.0832 232.125 410.88 C 241.9186 400.2418 249.951 389.9597 249.951 389.9597 L 259.2912 397.4194 C 259.2912 397.4194 269.3498 378.3972 268.9906 356.0181 C 268.9739 354.9811 268.9445 353.9753 268.9 353 L 259 353 C 239.4313 353 233.3707 358.7897 223.435 363.175 L 233.4261 373.5483 C 233.4261 373.5483 224.4453 385.1108 206.1241 395.9274 C 187.803 406.7439 170.9188 405.625 159.4233 398.9113 C 147.9278 392.1976 146.4909 375.0403 146.4909 375.0403 L 146.49 353.82 C 143.2252 353.3028 139.4646 353 135 353 C 130.5353 353 126.7749 353.3027 123.51 353.82 L 123.5089 375.0403 C 123.5089 375.0403 122.0721 392.1976 110.5765 398.9113 C 99.081 405.625 82.1968 406.7439 63.8757 395.9274 C 45.5547 385.1108 36.5738 373.5483 36.5738 373.5483 L 46.565 363.175 C 36.6293 358.7897 30.5687 353 11 353 L 1.1 353 C 1.0554 353.9753 1.0261 354.9811 1.0094 356.0181 C 0.6502 378.3972 10.7087 397.4194 10.7087 397.4194 L 20.049 389.9597 C 20.049 389.9597 28.0815 400.2419 37.875 410.88 C 46.3611 415.0832 53.537 420 73 420 C 107 420 103.5 405 135 405 Z"
			  fill="#1668b1"/>
		<path d="M 135 263 C 139.4646 263 143.2252 263.3027 146.49 263.82 L 146.4909 258.6693 C 146.4909 258.6693 146.1315 253.6341 147.9278 251.2097 C 149.7239 248.7853 153.6755 248.9718 153.6755 248.9718 L 170.9188 248.9718 C 176.8463 248.9718 182.9532 258.6693 190.3176 258.6693 C 197.682 258.6693 205.4057 249.7177 205.4057 240.7661 C 205.4057 234.3376 201.5173 228.6794 196.53 226 C 192.5938 225.9837 189.1654 225.7649 186.13 225.39 C 180.633 228.0279 176.1256 234.7984 170.9188 234.7984 L 152.957 234.7984 C 152.957 234.7984 149.7239 234.6119 148.6462 233.3065 C 147.5685 232.001 146.4909 223.6089 146.4909 223.6089 L 146.49 211.82 C 143.2251 211.3027 139.4645 211 135 211 C 130.5353 211 126.7749 211.3027 123.51 211.82 L 123.5089 223.6089 C 123.5089 223.6089 122.4313 232.001 121.3535 233.3065 C 120.2759 234.6119 117.0428 234.7984 117.0428 234.7984 L 99.081 234.7984 C 93.874 234.7984 89.3675 228.0276 83.87 225.39 C 80.8354 225.7646 77.4048 225.9838 73.47 226 C 68.4827 228.6794 64.5942 234.3376 64.5942 240.7661 C 64.5942 249.7177 72.3179 258.6693 79.6823 258.6693 C 87.0466 258.6693 93.1534 248.9718 99.081 248.9718 L 116.3243 248.9718 C 116.3243 248.9718 120.2759 248.7853 122.0721 251.2097 C 123.8683 253.6341 123.5089 258.6693 123.5089 258.6693 L 123.51 263.82 C 126.7749 263.3027 130.5353 263 135 263 Z"
			  fill="#1668b1"/>
		<path d="M 135 192 C 143.815 192 149.8879 193.1731 154.81 194.865 C 169.6144 187.2744 179.8828 171.5918 180.25 153.38 C 171.0928 151.3242 165.9761 147.6878 159.455 144.725 C 160.3672 147.4709 160.8602 150.4201 160.8602 153.4879 C 160.8602 168.3196 149.2803 180.3427 134.9952 180.3427 C 120.7103 180.3427 109.1303 168.3196 109.1303 153.4879 C 109.1303 150.422 109.6237 147.4745 110.535 144.73 C 104.0192 147.6918 98.902 151.3253 89.75 153.38 C 90.1172 171.5919 100.3855 187.2744 115.19 194.865 C 120.1121 193.1731 126.1849 192 135 192 Z"
			  fill="#1668b1"/>
		<path d="M 193.95 438.96 C 163.1833 438.0883 165.5254 424 135 424 C 104.4745 424 106.8167 438.0883 76.05 438.96 C 92.4523 446.094 113.0006 453.6461 119.1982 457.8427 C 127.4607 463.4375 134.9952 475 134.9952 475 C 134.9952 475 142.5392 463.4375 150.8016 457.8427 C 156.9992 453.6461 177.5477 446.094 193.95 438.96 Z"
			  fill="#1668b1"/>
	</g>
    <g>
		<path d="M 142.69 85.575 L 135 1 L 127.31 85.575 C 129.8176 85.1958 132.3865 85 135 85 C 137.6135 85 140.1823 85.1958 142.69 85.575 Z"
			  fill="#e0b71d"/>
        <path d="M 176.5 106.35 L 192 79 L 164.65 94.5 C 169.2211 97.7716 173.2283 101.7786 176.5 106.35 Z"
              stroke="#ffffff00" stroke-width="1" fill="#e0b71d"/>
        <path d="M 165 63 C 165 63 157.5973 67.6902 155.632 75.1784 C 154.4409 79.7166 150.0517 83.8328 146.78 86.37 C 152.3582 87.6892 157.5825 89.9265 162.285 92.91 C 162.983 90.095 164.6583 82.399 163.7719 76.5096 C 162.6666 69.1667 165 63 165 63 Z"
              stroke="#ffffff00" stroke-width="1" fill="#e0b71d"/>
        <path d="M 208 106 C 208 106 199.1637 104.2995 192.4531 108.347 C 188.8941 110.4937 183.0983 110.1672 178.53 109.415 C 181.4907 114.2526 183.668 119.6207 184.885 125.345 C 187.3354 123.8665 193.8284 119.6853 197.3438 114.9135 C 201.7953 108.8712 208 106 208 106 Z"
              stroke="#ffffff00" stroke-width="1" fill="#e0b71d"/>
        <path d="M 230 136 L 185.44 128.415 C 185.809 130.8896 186 133.4226 186 136 C 186 138.5774 185.809 141.1104 185.44 143.585 L 230 136 Z"
              stroke="#ffffff00" stroke-width="1" fill="#e0b71d"/>
        <path d="M 105.35 94.5 L 78 79 L 93.5 106.35 C 96.7716 101.7789 100.7786 97.7717 105.35 94.5 Z"
              stroke="#ffffff00" stroke-width="1" fill="#e0b71d"/>
        <path d="M 105 63 C 105 63 102.3333 70.1667 106.2281 76.5096 C 109.2786 81.4773 108.6362 89.3915 108.215 92.59 C 113.1014 89.5687 118.5352 87.3484 124.335 86.115 C 122.5367 82.2216 118.835 75.3567 114.5 73.8333 C 108.368 71.6784 105 63 105 63 Z"
              stroke="#ffffff00" stroke-width="1" fill="#e0b71d"/>
        <path d="M 62 106 C 62 106 64.5 112.8333 72.6562 114.9135 C 78.9194 116.511 83.4844 122.1421 85.265 124.67 C 86.6233 118.6818 89.0348 113.0926 92.295 108.11 C 88.5638 106.7631 82.3345 105.1651 76.5 106.6667 C 67.3802 109.0137 62 106 62 106 Z"
              stroke="#ffffff00" stroke-width="1" fill="#e0b71d"/>
        <path d="M 40 136 L 84.56 143.585 C 84.191 141.1104 84 138.5774 84 136 C 84 133.4226 84.191 130.8896 84.56 128.415 L 40 136 Z"
              stroke="#ffffff00" stroke-width="1" fill="#e0b71d"/>
        <path d="M 93.525 142.65 C 100.3264 138.4296 116.2574 130 135 130 C 153.7426 130 169.6736 138.4296 176.475 142.65 C 176.8197 140.4836 177 138.2634 177 136 C 177 112.8037 158.1963 94 135 94 C 111.8037 94 93 112.8037 93 136 C 93 138.2634 93.1803 140.4836 93.525 142.65 Z"
              fill="#e0b71d"/>
	</g>
</svg>