<?xml version="1.0" encoding="utf-8"?>
<!-- Generator: Adobe Illustrator 22.0.1, SVG Export Plug-In . SVG Version: 6.00 Build 0)  -->
<svg version="1.1" id="Layer_1" xmlns="http://www.w3.org/2000/svg" xmlns:xlink="http://www.w3.org/1999/xlink" x="0px" y="0px"
	 viewBox="0 0 50 50" style="enable-background:new 0 0 50 50;" xml:space="preserve">
<style type="text/css">
	.st0{fill:#FFFFFF;}
</style>
<path d="M50,25c0.1,13.6-11.1,24.9-25.1,24.9C11.1,49.8-0.8,38.5,0,23.4C0.8,10.6,11.3,0.3,24.5,0C38.9-0.3,50.1,11.3,50,25z
	 M24.8,36.8C24.8,36.8,24.8,36.8,24.8,36.8c0.6-0.1,1.2-0.1,1.9-0.1c3.4,0,6.9-0.1,10.3-0.4c1.6-0.1,3-0.8,3.7-2.3
	c0.4-0.8,0.6-1.6,0.7-2.5c0.2-1.2,0.3-2.4,0.3-3.6c0-2.5,0-5-0.1-7.5c0-1.2-0.2-2.4-0.5-3.6c-0.5-1.6-1.4-2.7-3.1-3.1
	c-0.9-0.2-1.9-0.3-2.8-0.3c-1.7-0.1-3.4-0.1-5-0.2c-5.8-0.1-11.6-0.2-17.4,0.3c-2,0.2-3.5,1.2-4,3.2c-0.1,0.4-0.3,0.9-0.3,1.3
	c-0.1,1.6-0.3,3.2-0.4,4.7c0,2.3,0,4.6,0.1,6.8c0,1.3,0.2,2.6,0.6,3.8c0.4,1.1,1,2,2.1,2.5c0.6,0.3,1.3,0.4,2,0.5
	c1,0.1,2.1,0.2,3.2,0.2C19,36.7,21.9,36.7,24.8,36.8z"/>
<path class="st0" d="M21.5,19.9c-0.2,1-0.1,8.8,0.1,9.4c3-1.6,6-3.1,9-4.7C30,24.1,22.1,20,21.5,19.9z"/>
<path d="M21.5,19.9c0.6,0.1,8.5,4.2,9,4.7c-3,1.6-6,3.1-9,4.7C21.4,28.7,21.3,21,21.5,19.9z"/>
</svg>
