<?xml version="1.0" encoding="utf-8"?>
<!-- Generator: Adobe Illustrator 22.0.1, SVG Export Plug-In . SVG Version: 6.00 Build 0)  -->
<svg version="1.1" id="Layer_1" xmlns="http://www.w3.org/2000/svg" xmlns:xlink="http://www.w3.org/1999/xlink" x="0px" y="0px"
	 viewBox="0 0 50 50" style="enable-background:new 0 0 50 50;" xml:space="preserve">
<path d="M50,24.9C50.1,38.6,38.8,50,25,50C11.2,50,0.4,39,0,25.7C-0.3,11.1,11.4-0.3,25.5,0C39,0.3,50,11.2,50,24.9z M33.8,7.7
	c-0.2-0.1-0.3-0.1-0.5-0.1c-1.8-0.1-3.5-0.2-5.3-0.1c-1.5,0-2.9,0.5-4.1,1.3c-2.1,1.4-3,3.5-3.2,5.8c-0.1,1.7-0.1,3.5-0.1,5.2
	c0,0.7,0,0.8-0.8,0.8c-1.3,0-2.6,0-3.9,0c-0.2,0-0.5,0-0.8,0c0,2.1,0,4.2,0,6.3c1.8,0,3.6,0,5.5,0c0,2.8,0,5.5,0,8.2
	c0,2.7,0,5.4,0,8.2c2.2,0,4.3,0,6.5,0c0-2.8,0-5.5,0-8.2c0-2.7-0.1-5.4,0-8.2c1.9-0.1,3.7,0,5.5-0.1c0.2-2.1,0.6-4.1,0.8-6.2
	c-2.1-0.1-4.2,0-6.3-0.1c0-0.6,0-1.2,0-1.7c0-1.1,0-2.3,0.1-3.4c0.1-0.9,0.6-1.6,1.5-1.9c0.5-0.1,0.9-0.2,1.4-0.3c0.9,0,1.8,0,2.8,0
	c0.2,0,0.5,0,0.8-0.1C33.8,11.4,33.8,9.6,33.8,7.7z"/>
</svg>
