<?xml version="1.0" encoding="utf-8"?>
<!-- Generator: Adobe Illustrator 22.0.1, SVG Export Plug-In . SVG Version: 6.00 Build 0)  -->
<svg version="1.1" id="Layer_1" xmlns="http://www.w3.org/2000/svg" xmlns:xlink="http://www.w3.org/1999/xlink" x="0px" y="0px"
	 viewBox="0 0 50 50" style="enable-background:new 0 0 50 50;" xml:space="preserve">
<style type="text/css">
	.st0{fill:#FFFFFF;}
</style>
<path d="M24.8,0c13.7,0,24.6,11,25,24.3C50.2,38.6,38.5,50,24.9,50c-14,0-25.1-11.3-25-25.1C0,10.7,11.3,0,24.8,0z M24.8,41.7
	C24.8,41.6,24.8,41.6,24.8,41.7c0.3-0.1,0.5,0,0.8,0c1.6,0,3.3-0.1,4.9-0.1c1.7,0,3.4-0.1,5-0.7c3.2-1.2,5-3.5,5.6-6.8
	c0.4-1.8,0.3-3.7,0.4-5.5c0.1-1.6,0-3.2,0-4.8c0-1.9,0-3.9-0.1-5.8c-0.1-1.5-0.3-2.9-1-4.3c-1.1-2.4-2.9-3.9-5.4-4.7
	c-1.6-0.5-3.2-0.6-4.8-0.6c-4.1,0-8.2,0-12.3,0.1c-1.2,0-2.5,0.2-3.7,0.6c-3.3,1.3-5.1,3.7-5.7,7.2c-0.2,1.5-0.3,2.9-0.3,4.4
	c0,3.8-0.1,7.7,0.1,11.5c0.1,2,0.6,4,1.8,5.6c1.8,2.5,4.4,3.5,7.4,3.7C20,41.6,22.4,41.6,24.8,41.7z"/>
<path class="st0" d="M24.8,38.7C24.8,38.7,24.8,38.7,24.8,38.7c0.9,0,1.9,0,2.8,0c1.9,0,3.9,0.1,5.8-0.3c2.9-0.6,4.5-2.4,4.9-5.2
	c0.2-1.3,0.2-2.5,0.2-3.8c0-3,0-6,0-9c0-1.3-0.1-2.5-0.3-3.8c-0.1-1.1-0.5-2-1.2-2.9c-1.1-1.4-2.5-2-4.2-2.2
	c-1.2-0.1-2.4-0.2-3.6-0.2c-3.8,0-7.7,0.1-11.5,0.1c-0.4,0-0.9,0.1-1.3,0.1c-2.6,0.4-4.4,2-4.9,4.6c-0.2,1-0.3,2.1-0.3,3.2
	c0,3.9,0,7.7,0,11.6c0,1.1,0.1,2.3,0.4,3.3c0.4,1.3,1.1,2.3,2.2,3.1c1.3,0.9,2.7,1.2,4.2,1.2C20.2,38.7,22.5,38.7,24.8,38.7z"/>
<path d="M24.8,38.7c-2.3,0-4.6,0-6.8-0.1c-1.5-0.1-2.9-0.3-4.2-1.2c-1.1-0.8-1.8-1.8-2.2-3.1c-0.3-1.1-0.4-2.2-0.4-3.3
	c0-3.9,0-7.7,0-11.6c0-1.1,0.1-2.2,0.3-3.2c0.5-2.5,2.4-4.2,4.9-4.6c0.4-0.1,0.9-0.1,1.3-0.1c3.8,0,7.7-0.1,11.5-0.1
	c1.2,0,2.4,0.1,3.6,0.2c1.7,0.2,3.1,0.9,4.2,2.2c0.7,0.9,1.1,1.8,1.2,2.9c0.2,1.3,0.2,2.5,0.3,3.8c0,3,0,6,0,9
	c0,1.3-0.1,2.5-0.2,3.8c-0.4,2.8-2,4.6-4.9,5.2c-1.9,0.4-3.9,0.3-5.8,0.3C26.7,38.7,25.8,38.7,24.8,38.7
	C24.8,38.7,24.8,38.7,24.8,38.7z M33.3,25c0.1-4.5-3.6-8.3-8.1-8.5c-4.7-0.2-8.6,3.4-8.9,8c-0.3,4.8,3.5,8.9,8.2,9
	C29.3,33.6,33.4,29.8,33.3,25z M35.7,16.1c0-1.1-0.9-2-1.9-2c-1,0-1.9,0.8-1.9,1.9c0,1.1,0.8,2,1.9,2.1
	C34.8,18.1,35.7,17.2,35.7,16.1z"/>
<path class="st0" d="M24.8,30.5c3.1,0.1,5.5-2.4,5.6-5.4c0.1-3.2-2.5-5.6-5.3-5.8c-3-0.1-5.8,2.1-5.9,5.5
	C19.2,27.9,21.6,30.5,24.8,30.5z"/>
<path d="M24.8,30.5c-3.2,0-5.6-2.6-5.5-5.7c0.1-3.4,2.9-5.6,5.9-5.5c2.9,0.1,5.4,2.6,5.3,5.8C30.3,28.1,27.9,30.6,24.8,30.5z"/>
</svg>
