<?xml version="1.0" encoding="utf-8"?>
<!-- Generator: Adobe Illustrator 22.0.1, SVG Export Plug-In . SVG Version: 6.00 Build 0)  -->
<svg version="1.1" id="Layer_1" xmlns="http://www.w3.org/2000/svg" xmlns:xlink="http://www.w3.org/1999/xlink" x="0px" y="0px"
	 viewBox="0 0 50 50" style="enable-background:new 0 0 50 50;" xml:space="preserve">
<path d="M50,24.9c0.1,1.6-0.1,3.4-0.4,5.1c-0.7,3.5-2.1,6.7-4.2,9.6c-1.7,2.3-3.7,4.4-6.1,6c-2.3,1.6-4.8,2.8-7.5,3.5
	c-2.3,0.6-4.7,1-7.1,1c-1.6,0-3.2-0.2-4.8-0.6c-2.6-0.5-5.1-1.5-7.4-2.8c-3-1.7-5.5-4-7.5-6.7c-1.3-1.7-2.3-3.5-3.1-5.5
	c-0.8-2-1.3-4-1.6-6.1C0,26.5,0,24.7,0.1,23c0.1-1.6,0.4-3.1,0.9-4.7c0.7-2.4,1.6-4.5,2.9-6.6C6.3,8,9.4,5.1,13.3,3
	c2.4-1.3,4.9-2.1,7.6-2.6c2.4-0.4,4.8-0.5,7.2-0.2c2.1,0.3,4.2,0.8,6.1,1.6c2.3,0.9,4.5,2.1,6.4,3.7c2.7,2.2,4.9,4.8,6.6,7.9
	c1.1,2.2,2,4.5,2.4,7C49.9,21.9,50,23.3,50,24.9z M38.7,35.7c0-0.4,0-0.7,0-1c0-1.8,0-3.7,0-5.5c0-1.8,0-3.6-0.1-5.5
	c-0.1-1.4-0.3-2.8-1-4.1c-0.5-1-1.3-1.8-2.3-2.4c-1.2-0.6-2.5-0.7-3.8-0.7c-2.2,0-3.9,0.8-5.2,2.7c-0.1,0.1-0.2,0.1-0.4,0.3
	c0-0.9,0-1.7,0-2.5c-1.9,0-3.7,0-5.5,0c0,6.3,0,12.5,0,18.8c1.9,0,3.8,0.1,5.7,0c0-0.4,0-0.7,0-1c0-1.4,0-2.8,0-4.2
	c0-1.7,0-3.3,0.1-5c0-0.6,0.1-1.2,0.3-1.7c0.6-2.1,2.5-2.5,4.1-2.2c1,0.2,1.6,0.8,2,1.7c0.3,0.9,0.3,1.8,0.3,2.7c0,3,0,6,0,8.9
	c0,0.2,0,0.5,0,0.7C34.9,35.7,36.8,35.7,38.7,35.7z M10.9,16.9c0,6.3,0,12.5,0,18.8c1,0,2,0,2.9,0c0.9,0,1.9,0.1,2.8-0.1
	c0-6.3,0-12.5,0-18.7C14.7,16.9,12.8,16.9,10.9,16.9z M13.7,14.2c1.8,0.1,3.4-1.3,3.4-3.3c0-2-1.5-3.4-3.4-3.4
	c-1.8,0-3.3,1.5-3.3,3.4C10.4,12.7,11.9,14.2,13.7,14.2z"/>
</svg>
