<?xml version="1.0" encoding="utf-8"?>
<!-- Generator: Adobe Illustrator 22.0.1, SVG Export Plug-In . SVG Version: 6.00 Build 0)  -->
<svg version="1.1" id="Layer_1" xmlns="http://www.w3.org/2000/svg" xmlns:xlink="http://www.w3.org/1999/xlink" x="0px" y="0px"
	 viewBox="0 0 50 50" style="enable-background:new 0 0 50 50;" xml:space="preserve">
<path d="M49.9,24.6C50,38.8,38.6,50.1,24.6,50C11.2,49.9,0.2,39.1,0,25.3C-0.2,10.9,11.4-0.1,25.3,0C38.8,0.1,49.7,10.9,49.9,24.6z
	 M9.3,22.6c0,0.2,0,0.4,0,0.6c0.3,2.9,2.3,5.3,5,6.1c0.1,0,0.3,0.1,0.5,0.2c-1,0.4-2,0.2-2.9,0.2c0,0.2,0,0.2,0,0.3
	c1,2.4,2.8,3.9,5.3,4.4c0.3,0.1,0.7,0.1,1.1,0.2c-1.5,1.3-3.1,2-4.7,2.5c-1.7,0.6-3.5,0.6-5.2,0.6c0.2,0.2,0.3,0.3,0.5,0.4
	c0.5,0.3,1,0.5,1.5,0.7c2.2,1,4.6,1.6,7.1,1.8c1.8,0.1,3.6,0,5.4-0.3c2.7-0.5,5.3-1.5,7.5-3.1c3.2-2.3,5.6-5.3,7.1-9
	c1.1-2.6,1.7-5.4,1.6-8.2c0-0.5,0.1-0.8,0.5-1.1c0.9-0.7,1.7-1.5,2.4-2.4c0.1-0.1,0.2-0.3,0.4-0.6c-1.3,0.3-2.3,0.8-3.5,0.8
	c1.1-1,2.2-2.1,2.7-3.7c-0.3,0.1-0.4,0.2-0.6,0.3c-1.1,0.4-2.2,0.8-3.2,1.2c-0.4,0.1-0.7,0.1-1-0.2c-1.1-1-2.4-1.6-3.9-1.8
	c-3.9-0.6-7.7,2.3-8,6.5c0,0.7,0,1.4,0,2.2c-1,0.2-2-0.1-3-0.3c-4.7-1-8.5-3.3-11.7-7c-0.7,1.1-0.9,2.1-0.9,3.2
	c-0.1,2.5,1,4.5,3,6.1c-0.2,0.1-0.3,0.1-0.3,0.1C11.1,23.1,10.2,22.9,9.3,22.6z"/>
</svg>
